<?xml version="1.0" standalone="no"?>
<!DOCTYPE svg PUBLIC "-//W3C//DTD SVG 20010904//EN"
 "http://www.w3.org/TR/2001/REC-SVG-20010904/DTD/svg10.dtd">
<svg version="1.0" xmlns="http://www.w3.org/2000/svg"
 width="500.000000pt" height="500.000000pt" viewBox="0 0 500.000000 500.000000"
 preserveAspectRatio="xMidYMid meet">

<g transform="translate(0.000000,500.000000) scale(0.100000,-0.100000)"
fill="#000000" stroke="none">
<path d="M2335 4669 c-409 -28 -859 -214 -1190 -491 -104 -87 -260 -246 -326
-333 -126 -164 -244 -373 -314 -554 l-33 -86 -216 -3 -216 -2 0 -60 0 -60
2460 0 2460 0 0 60 0 60 -185 0 c-168 0 -186 2 -192 18 -98 282 -296 607 -473
777 l-41 40 -101 -105 c-56 -58 -241 -246 -411 -417 l-311 -313 -318 0 -318 0
0 734 0 734 -31 6 c-36 7 -91 6 -244 -5z m195 -189 l0 -60 -62 0 c-392 0 -862
-184 -1189 -464 l-76 -65 -39 40 -39 41 45 40 c368 326 827 508 1323 527 l37
1 0 -60z m0 -705 l0 -575 -318 0 -317 0 -319 319 -318 318 78 68 c320 273 716
424 1162 444 l32 1 0 -575z m-1419 99 l37 -36 -80 -96 c-108 -128 -197 -265
-269 -417 l-60 -125 -54 0 c-30 0 -55 4 -55 9 0 41 131 299 219 430 56 83 208
271 220 271 3 0 22 -16 42 -36z m3007 -109 c112 -138 208 -301 286 -482 l35
-83 -59 0 -58 0 -66 134 c-68 140 -165 292 -245 386 -69 80 -68 77 -25 121 37
38 39 39 54 21 8 -10 43 -54 78 -97z m-2810 -563 c-259 -1 -474 0 -477 3 -6 7
55 133 117 239 53 92 137 207 207 284 l48 54 289 -289 288 -288 -472 -3z
m2696 403 c83 -110 226 -359 226 -395 0 -7 -147 -10 -437 -10 l-438 0 270 270
270 271 28 -33 c16 -18 52 -64 81 -103z"/>
<path d="M3808 3015 c-53 -29 -63 -85 -25 -132 l24 -28 -93 -200 c-51 -110
-93 -203 -94 -207 0 -5 16 -8 35 -8 31 0 38 5 52 35 l17 35 126 0 126 0 17
-35 c14 -30 21 -35 52 -35 19 0 35 4 35 9 0 4 -42 98 -94 207 -72 152 -91 201
-82 209 84 68 -2 202 -96 150z m68 -66 c3 -6 -1 -18 -9 -27 -13 -12 -19 -13
-31 -3 -8 7 -12 19 -9 27 6 17 39 19 49 3z m23 -269 c22 -50 41 -93 41 -95 0
-3 -41 -5 -91 -5 -50 0 -89 4 -87 8 24 60 84 182 89 182 3 0 25 -41 48 -90z"/>
<path d="M2002 2880 c-41 -25 -65 -79 -56 -125 10 -53 56 -92 138 -115 102
-29 120 -40 124 -76 5 -46 -33 -67 -108 -62 -44 3 -67 11 -94 32 -35 26 -38
27 -61 12 -32 -21 -31 -29 8 -62 47 -40 89 -54 158 -54 110 0 169 46 169 133
0 44 -4 54 -34 82 -22 21 -56 38 -98 49 -91 25 -118 36 -128 57 -14 26 -12 37
10 59 25 25 93 27 149 4 38 -15 42 -15 66 4 l26 20 -28 20 c-68 47 -183 57
-241 22z"/>
<path d="M1100 2683 c-125 -270 -117 -243 -72 -243 34 0 40 4 55 35 l17 35
125 0 125 0 17 -35 c15 -31 21 -35 55 -35 l38 0 -14 33 c-17 40 -67 146 -139
300 -52 109 -58 117 -84 117 -27 -1 -33 -11 -123 -207z m178 -15 l41 -88 -95
0 c-89 0 -94 1 -85 19 6 10 26 54 46 97 21 46 39 74 44 68 5 -5 27 -48 49 -96z"/>
<path d="M1560 2665 l0 -225 140 0 140 0 0 35 0 35 -105 0 -105 0 0 190 0 190
-35 0 -35 0 0 -225z"/>
<path d="M2370 2855 l0 -35 60 0 60 0 0 -190 0 -190 35 0 35 0 0 190 0 190 60
0 60 0 0 35 0 35 -155 0 -155 0 0 -35z"/>
<path d="M2780 2665 l0 -225 145 0 145 0 0 35 0 35 -110 0 -110 0 0 60 0 60
80 0 80 0 0 35 0 35 -80 0 -80 0 0 60 0 60 110 0 110 0 0 35 0 35 -145 0 -145
0 0 -225z"/>
<path d="M3180 2666 l0 -226 35 0 35 0 0 55 0 56 67 -3 68 -3 25 -52 c24 -50
27 -53 63 -53 20 0 37 2 37 5 0 3 -14 33 -31 66 l-30 61 24 27 c38 40 47 65
47 124 0 60 -23 104 -73 141 -24 18 -46 21 -148 24 l-119 4 0 -226z m229 138
c13 -9 29 -32 37 -50 12 -29 12 -39 0 -68 -21 -51 -50 -66 -128 -66 l-68 0 0
100 0 100 68 0 c46 0 75 -5 91 -16z"/>
<path d="M1710 2215 c0 -108 1 -115 20 -115 16 0 20 7 20 30 0 28 2 30 39 30
74 0 119 66 87 128 -19 37 -32 42 -107 42 l-59 0 0 -115z m125 65 c15 -16 17
-26 9 -48 -8 -23 -16 -27 -52 -30 l-42 -3 0 50 0 51 33 0 c21 0 41 -8 52 -20z"/>
<path d="M1962 2218 c3 -98 5 -113 21 -116 15 -3 17 7 17 112 0 110 -1 116
-20 116 -20 0 -21 -5 -18 -112z"/>
<path d="M2070 2315 c0 -12 13 -15 60 -15 33 0 60 -2 60 -5 0 -3 -27 -42 -60
-87 -33 -45 -60 -87 -60 -95 0 -10 22 -13 90 -13 83 0 90 2 90 20 0 16 -8 19
-60 22 l-59 3 59 80 c33 44 59 86 60 93 0 9 -24 12 -90 12 -73 0 -90 -3 -90
-15z"/>
<path d="M2310 2315 c0 -10 16 -15 61 -17 l60 -3 -60 -83 c-34 -45 -61 -89
-61 -98 0 -12 14 -14 88 -12 69 2 87 6 87 18 0 11 -15 16 -58 20 l-59 5 61 84
c34 46 61 88 61 93 0 4 -40 8 -90 8 -72 0 -90 -3 -90 -15z"/>
<path d="M2560 2215 l0 -116 72 3 c60 2 73 6 76 21 3 14 -5 17 -52 17 -56 0
-56 0 -56 30 0 28 2 30 40 30 33 0 40 3 40 20 0 17 -7 20 -40 20 -38 0 -40 2
-40 30 0 30 1 30 55 30 42 0 55 3 55 15 0 12 -15 15 -75 15 l-75 0 0 -115z"/>
<path d="M2782 2218 c3 -98 5 -113 21 -116 13 -3 17 3 17 27 0 29 3 31 34 31
28 0 36 -5 46 -30 8 -18 20 -30 31 -30 23 0 23 3 4 41 -15 28 -15 31 5 56 27
35 26 78 -5 108 -21 22 -33 25 -90 25 l-66 0 3 -112z m120 65 c21 -18 24 -53
6 -71 -7 -7 -29 -12 -50 -12 l-38 0 0 50 c0 49 0 50 32 50 17 0 40 -7 50 -17z"/>
<path d="M3042 2218 c3 -98 5 -113 21 -116 15 -3 17 7 17 112 0 110 -1 116
-20 116 -20 0 -21 -5 -18 -112z"/>
<path d="M3205 2223 c-28 -58 -51 -110 -53 -115 -8 -18 38 -7 48 12 9 17 21
20 75 20 55 0 65 -3 70 -20 6 -18 45 -30 45 -14 0 4 -23 56 -52 115 -34 74
-56 109 -68 109 -11 0 -32 -34 -65 -107z m105 -40 c0 -9 -14 -13 -40 -13 -46
0 -48 6 -19 62 l21 42 19 -39 c11 -21 19 -45 19 -52z"/>
<path d="M980 2215 l0 -25 250 0 250 0 0 25 0 25 -250 0 -250 0 0 -25z"/>
<path d="M3610 2215 l0 -25 243 2 242 3 3 23 3 22 -245 0 -246 0 0 -25z"/>
<path d="M40 1860 l0 -60 203 0 202 0 29 -77 c107 -290 334 -624 565 -832 459
-411 1023 -607 1622 -563 376 28 710 139 1019 339 269 175 503 412 667 676 60
98 169 318 199 405 l18 52 198 0 198 0 0 60 0 60 -2460 0 -2460 0 0 -60z m719
-140 c176 -344 444 -648 751 -850 302 -198 630 -294 1005 -293 427 1 802 135
1150 411 211 167 452 467 579 720 l47 92 59 0 c33 0 60 -2 60 -4 0 -9 -69
-164 -100 -225 -122 -243 -351 -519 -565 -682 -627 -479 -1452 -558 -2147
-207 -218 110 -376 227 -548 404 -187 193 -310 378 -416 627 -19 43 -34 81
-34 83 0 2 27 4 59 4 l60 0 40 -80z m1669 40 c32 -38 121 -51 382 -59 248 -7
268 -10 313 -49 17 -15 22 -56 11 -87 -17 -43 -154 -86 -391 -120 -119 -18
-188 -45 -199 -78 -16 -47 5 -76 86 -117 137 -69 395 -126 778 -170 103 -12
193 -24 201 -26 17 -5 -105 -98 -215 -164 -167 -99 -335 -163 -541 -207 -117
-24 -147 -27 -348 -27 -200 0 -232 3 -346 27 -159 34 -306 84 -439 153 -174
89 -180 83 95 84 252 0 322 9 386 46 108 63 104 209 -8 302 -151 126 -95 210
157 232 497 44 589 57 621 86 24 22 24 41 0 54 -11 5 -80 10 -154 10 -166 0
-291 20 -374 61 -73 35 -101 69 -57 69 14 0 33 -9 42 -20z"/>
</g>
</svg>
